HIERARCHY
ROOT Hips
{
  OFFSET -187.679 86.5976 -156.378
  CHANNELS 6 Xposition Yposition Zposition Zrotation Xrotation Yrotation
  JOINT LeftUpLeg
  {
    OFFSET 8.64259 1.95398 -2.38835
    CHANNELS 3 Zrotation Xrotation Yrotation
    JOINT LeftLeg
    {
      OFFSET 43.7702 0 0
      CHANNELS 3 Zrotation Xrotation Yrotation
      JOINT LeftFoot
      {
        OFFSET 40.6238 0 0
        CHANNELS 3 Zrotation Xrotation Yrotation
        JOINT LeftToeBase
        {
          OFFSET 12.7242 0 0
          CHANNELS 3 Zrotation Xrotation Yrotation
          End Site
          {
            OFFSET 0 0 0
          }
        }
      }
    }
  }
  JOINT RightUpLeg
  {
    OFFSET -8.2249 1.95398 -2.59336
    CHANNELS 3 Zrotation Xrotation Yrotation
    JOINT RightLeg
    {
      OFFSET 43.5653 0 0
      CHANNELS 3 Zrotation Xrotation Yrotation
      JOINT RightFoot
      {
        OFFSET 40.6238 0 0
        CHANNELS 3 Zrotation Xrotation Yrotation
        JOINT RightToeBase
        {
          OFFSET 12.7242 0 0
          CHANNELS 3 Zrotation Xrotation Yrotation
          End Site
          {
            OFFSET 0 0 0
          }
        }
      }
    }
  }
  JOINT Spine
  {
    OFFSET 0.165834 0.87714 6.61349
    CHANNELS 3 Zrotation Xrotation Yrotation
    JOINT Spine1
    {
      OFFSET 7.38963 1.71661e-005 0
      CHANNELS 3 Zrotation Xrotation Yrotation
      JOINT Spine2
      {
        OFFSET 11.9445 1.14441e-005 0
        CHANNELS 3 Zrotation Xrotation Yrotation
        JOINT Spine3
        {
          OFFSET 14.7254 4.19617e-005 0
          CHANNELS 3 Zrotation Xrotation Yrotation
          JOINT Spine4
          {
            OFFSET 10.9679 0 0
            CHANNELS 3 Zrotation Xrotation Yrotation
            JOINT RightShoulder
            {
              OFFSET 2.46616 -1.6653 3.69651
              CHANNELS 3 Zrotation Xrotation Yrotation
              JOINT RightArm
              {
                OFFSET 13.0012 0 0
                CHANNELS 3 Zrotation Xrotation Yrotation
                JOINT RightForeArm
                {
                  OFFSET 28.7848 1.52588e-005 0
                  CHANNELS 3 Zrotation Xrotation Yrotation
                  JOINT RightHand
                  {
                    OFFSET 26.5688 1.52588e-005 0
                    CHANNELS 3 Zrotation Xrotation Yrotation
                    End Site
                    {
                      OFFSET 0 0 0
                    }
                  }
                }
              }
            }
            JOINT LeftShoulder
            {
              OFFSET 2.38034 -1.29275 -3.7523
              CHANNELS 3 Zrotation Xrotation Yrotation
              JOINT LeftArm
              {
                OFFSET 16.3182 6.10352e-005 0
                CHANNELS 3 Zrotation Xrotation Yrotation
                JOINT LeftForeArm
                {
                  OFFSET 27.0901 0 0
                  CHANNELS 3 Zrotation Xrotation Yrotation
                  JOINT LeftHand
                  {
                    OFFSET 24.5451 1.52588e-005 0
                    CHANNELS 3 Zrotation Xrotation Yrotation
                    End Site
                    {
                      OFFSET 0 0 0
                    }
                  }
                }
              }
            }
            JOINT Neck
            {
              OFFSET 5.0226 -0.0266342 0
              CHANNELS 3 Zrotation Xrotation Yrotation
              JOINT Head
              {
                OFFSET 6.69363 2.86102e-005 0
                CHANNELS 3 Zrotation Xrotation Yrotation
                End Site
                {
                  OFFSET 0 0 0
                }
              }
            }
          }
        }
      }
    }
  }
}
MOTION
Frames:	12
Frame Time:	0.0416667
34.0434 102.066 19.7472 -157.938 -80.202 -160.685 -176.183 -9.75907 86.7085 -9.72836 9.80147 9.27946 67.7252 3.41109 -2.74307 17.5773 -7.81243 7.339 170.304 -5.30085 83.8464 -15.9835 8.3443 2.85003 66.3048 -2.39259 2.83608 25.8181 -1.729 4.02753 0.285472 7.41124 -89.6256 12.0489 0.744393 0.665584 0.377962 0.77296 0.632176 -22.1567 0.509952 0.858527 -2.1441 0.509946 0.858527 85.4907 -46.9653 -108.441 5.18502 -7.50583 -33.8909 -6.37828 16.2489 -65.023 4.01861 -0.112689 -7.03435 -89.9093 -43.1363 77.5096 -7.32364 8.53683 -29.6308 -35.254 -27.863 -71.8685 -5.56689 -0.228476 0.892307 2.75778 -1.17394 -5.08391 2.87245 -0.182193 2.90324 
33.7482 102.061 19.8315 -160.784 -80.8472 -162.79 -175.342 -8.36857 88.1563 -11.5003 10.7966 8.82469 68.4632 3.47962 -3.06144 16.1812 -7.80914 5.88352 171.15 -5.67934 85.1493 -14.7937 8.78776 2.80425 65.2208 -2.17798 2.12284 26.2568 -1.67481 4.12762 0.206771 7.35242 -89.7515 12.1677 0.528679 0.437167 0.496825 0.547413 0.41347 -22.0382 0.372845 0.575843 -2.02557 0.372859 0.57585 86.2566 -45.935 -107.576 5.97836 -8.13886 -34.3589 -6.2595 16.3933 -64.7293 4.25617 -0.122219 -7.15396 -89.9425 -43.8226 77.6257 -7.99425 8.41478 -30.0734 -34.8138 -29.0831 -71.0678 -7.54175 -0.268969 -0.124729 2.52774 -0.981911 -4.67768 3.05857 -0.0391762 3.40483 
33.7333 102.087 19.9663 -161.01 -80.6924 -162.867 -175.12 -8.70687 88.3981 -11.3204 11.3506 8.72859 68.3851 3.49672 -2.89187 16.459 -8.24039 7.06349 171.1 -5.97474 85.2621 -14.9404 8.81876 2.89731 65.5779 -2.23165 1.81768 25.6412 -1.82957 4.23308 0.212153 7.37261 -89.7675 12.1272 0.531743 0.405279 0.456356 0.549067 0.381484 -22.0788 0.385353 0.546355 -2.06616 0.38535 0.54635 86.1101 -46.0755 -107.762 5.88718 -8.04653 -34.238 -6.52623 16.2382 -64.7511 4.50279 -0.132475 -7.27843 -89.9324 -43.7906 77.6337 -7.82201 7.5618 -30.1781 -33.0606 -28.3363 -69.7291 -7.51688 -0.319633 1.06303 2.61357 -1.01786 -4.63272 2.83135 -0.101474 3.06746 
33.7444 102.085 20.0449 -161.358 -80.7313 -163.203 -175.175 -8.68851 88.3353 -11.4644 11.4798 8.80826 68.3215 3.50102 -2.69635 16.8111 -8.15793 7.25841 171.108 -6.00964 85.2626 -14.9257 8.89171 2.89614 65.7419 -2.26706 1.63224 25.3911 -2.05069 4.76762 0.21023 7.37483 -89.7849 12.1315 0.519593 0.371527 0.460622 0.535439 0.348294 -22.0746 0.383916 0.510511 -2.06197 0.383909 0.510504 86.266 -45.7923 -107.608 6.25632 -7.87505 -34.2417 -6.41696 16.2543 -64.5943 3.94796 -0.109421 -6.98049 -90.0314 -44.0607 77.5415 -7.61527 7.55172 -30.2191 -33.1708 -28.535 -69.5451 -6.87508 -0.302135 1.36039 2.54572 -0.987809 -4.17769 2.97689 -0.161884 2.71411 
33.7239 102.068 20.0905 -161.37 -80.828 -163.119 -175.27 -8.54363 88.3266 -11.6658 11.3112 8.96587 68.5721 3.57904 -2.7033 16.4415 -8.35305 7.27783 171.276 -6.24119 85.4357 -14.2718 9.1151 2.83225 65.3339 -2.2869 2.11318 25.8724 -1.70455 3.98388 0.238221 7.37123 -89.7946 12.1305 0.570709 0.346746 0.459684 0.585418 0.321289 -22.0758 0.440112 0.502229 -2.06311 0.440119 0.502239 86.4131 -45.9776 -107.315 5.96332 -7.93346 -34.2289 -6.38475 16.3357 -64.8369 4.41562 -0.131648 -7.29746 -90.1192 -43.949 77.3742 -7.26946 7.73226 -30.4509 -33.449 -28.7082 -69.4767 -6.1259 -0.279404 1.68684 3.04924 -1.18118 -4.36963 2.33649 -0.317688 2.69591 
33.7215 102.073 20.1619 -161.4 -80.869 -163.164 -175.156 -8.50028 88.4451 -11.6793 11.1999 8.8161 68.6262 3.53224 -3.02002 16.4918 -8.2204 7.05566 171.276 -6.12424 85.457 -14.6395 9.2062 2.82517 65.7273 -2.31977 1.90904 25.3708 -1.87008 4.19192 0.22978 7.36212 -89.788 12.1487 0.557054 0.361291 0.477809 0.572422 0.33641 -22.0576 0.422721 0.512002 -2.0449 0.422723 0.512003 86.2436 -46.0823 -107.549 5.85502 -7.89608 -34.1256 -5.93889 16.5253 -64.9761 4.3973 -0.123312 -7.11412 -90.064 -44.0403 77.4847 -7.20116 7.67676 -30.4402 -33.629 -28.7195 -69.6216 -6.24444 -0.27945 1.5068 2.83673 -1.16689 -4.5147 2.45938 -0.273746 2.95108 
33.7098 102.063 20.2621 -161.816 -80.8851 -163.429 -174.927 -8.43761 88.7335 -11.8986 11.6483 8.67118 68.7082 3.61615 -2.70569 16.6121 -8.18771 7.11219 171.336 -6.33823 85.5881 -14.3293 9.22331 2.85468 65.3201 -2.28535 2.08674 25.9934 -1.69224 4.01788 0.233544 7.3539 -89.8007 12.1652 0.558594 0.335814 0.494357 0.572834 0.310894 -22.0411 0.431847 0.488169 -2.02844 0.431847 0.488169 86.2293 -45.9678 -107.609 6.14864 -7.85458 -34.0505 -6.22933 16.3295 -65.0034 4.7555 -0.143228 -7.39337 -90.0758 -43.967 77.4479 -7.32374 7.69599 -30.5272 -33.118 -28.7675 -69.4235 -6.82177 -0.298359 1.25204 2.68913 -1.2169 -4.80441 2.4889 -0.263692 3.32742 
33.7309 102.062 20.3123 -162.465 -81.0199 -164.13 -175.05 -8.38706 88.6039 -11.8682 11.6274 8.77614 68.6789 3.55845 -2.90573 16.7941 -8.33597 7.61063 171.249 -6.22337 85.5057 -14.4742 9.1884 2.92199 65.5688 -2.32995 1.7904 25.5424 -1.82913 4.17232 0.22087 7.34835 -89.7857 12.1763 0.540539 0.367704 0.505395 0.556207 0.343564 -22.0299 0.405038 0.513164 -2.01726 0.405037 0.513165 86.1546 -46.0253 -107.708 6.10766 -7.74427 -33.9742 -6.50953 16.1526 -65.0863 4.59925 -0.135847 -7.30551 -90.0579 -43.8878 77.457 -7.64991 7.40816 -30.5848 -31.6138 -28.3303 -69.0278 -8.71374 -0.353702 0.642065 2.66161 -1.22034 -4.75843 2.74178 -0.281272 3.05295 
33.7413 102.055 20.3513 -162.278 -81.0229 -163.947 -175.036 -8.36482 88.6039 -11.973 11.6508 8.76077 68.7019 3.57894 -2.77121 16.7436 -8.19098 7.2567 171.23 -6.25439 85.503 -14.4797 9.32901 2.95345 65.877 -2.41133 1.70494 25.33 -1.9773 4.50127 0.230188 7.34802 -89.7978 12.177 0.553292 0.342051 0.506103 0.567809 0.317364 -22.0293 0.424909 0.492524 -2.01665 0.424907 0.492517 86.2278 -45.9323 -107.623 6.01378 -7.89365 -33.904 -6.60835 16.0799 -65.2315 5.1181 -0.155698 -7.48425 -90.1415 -43.9621 77.342 -7.20944 7.61246 -30.3149 -32.7489 -28.4742 -69.6267 -7.55931 -0.316696 0.88592 2.746 -1.21678 -4.4047 2.72272 -0.346926 2.74901 
33.7696 102.047 20.3844 -162.418 -81.0044 -164.037 -175.032 -8.37154 88.6351 -12.0329 11.5137 8.78049 68.9111 3.63055 -2.89593 16.3925 -8.32652 7.17224 171.267 -6.34567 85.4963 -14.2311 9.41121 2.93646 65.2447 -2.28565 2.15734 26.198 -1.70342 4.18281 0.231505 7.35771 -89.7833 12.1574 0.562757 0.370052 0.486586 0.578498 0.344921 -22.0488 0.425524 0.522075 -2.03613 0.425519 0.52207 86.1356 -46.0762 -107.722 5.95238 -7.88866 -33.9604 -6.49626 16.2186 -65.126 4.87615 -0.140961 -7.29012 -89.9363 -43.6633 77.5962 -7.27221 8.23834 -30.3519 -34.1285 -28.6554 -70.7212 -8.26638 -0.286019 -0.300264 2.93399 -1.13204 -4.59268 2.56403 -0.222577 2.89066 
33.7961 102.067 20.3957 -161.724 -81.103 -163.327 -175.172 -8.49384 88.4969 -11.5683 11.5275 8.93244 68.5369 3.56903 -2.66739 16.5337 -8.18975 7.03579 171.217 -6.15269 85.5149 -14.522 9.021 2.96347 65.4793 -2.29373 1.73227 25.9534 -1.72724 4.10604 0.236554 7.34801 -89.782 12.1769 0.573381 0.371282 0.505986 0.589165 0.345679 -22.0294 0.435292 0.526437 -2.01675 0.435294 0.526443 85.9992 -46.0843 -107.935 6.09654 -7.77622 -33.9259 -6.73687 16.0582 -64.9858 4.77756 -0.128959 -7.08041 -89.786 -43.3929 77.7712 -7.73987 7.50014 -30.3905 -32.3956 -28.2884 -69.3451 -7.68685 -0.340275 1.25352 3.01647 -1.14064 -4.92344 2.49063 -0.153066 3.36778 
33.8086 102.054 20.3977 -161.159 -81.2899 -162.76 -175.294 -8.20873 88.3987 -11.7777 11.2864 9.00765 68.7598 3.62798 -2.73174 16.3351 -8.33694 7.13425 171.303 -5.92249 85.5793 -14.5423 9.29147 2.93782 65.6668 -2.35012 1.69333 25.6065 -1.96359 4.62999 0.247373 7.31947 -89.7941 12.234 0.589249 0.345093 0.563186 0.603869 0.318822 -21.9723 0.4583 0.506235 -1.95966 0.458296 0.50623 86.2128 -45.9246 -107.649 6.24531 -7.79788 -34.0874 -7.01429 15.9289 -64.7732 4.68032 -0.127056 -7.0787 -89.9716 -43.5834 77.5199 -7.66836 7.47528 -30.2889 -32.9664 -28.5638 -69.4968 -6.90842 -0.312239 1.51398 2.92784 -1.19256 -4.79046 2.412 -0.232158 3.37044 
